<?xml version="1.0"?>
<svg width="174" height="30" xmlns="http://www.w3.org/2000/svg" xmlns:svg="http://www.w3.org/2000/svg">
 <g class="layer">
  <title>Layer 1</title>
  <path d="m30,15c0,8.28 -6.72,15 -15,15c-8.28,0 -15,-6.72 -15,-15c0,-8.28 6.72,-15 15,-15c8.28,0 15,6.72 15,15zm-24.18,0c0,5.07 4.11,9.18 9.18,9.18c5.07,0 9.18,-4.11 9.18,-9.18c0,-5.07 -4.11,-9.18 -9.18,-9.18c-5.07,0 -9.18,4.11 -9.18,9.18z" fill="#E5E7EB" id="svg_1"/>
  <path d="m26.07,10.14c1.47,-0.64 3.22,0.03 3.57,1.6c0.51,2.29 0.48,4.68 -0.11,6.98c-0.83,3.24 -2.72,6.11 -5.37,8.16c-2.65,2.04 -5.91,3.14 -9.26,3.12c-3.35,-0.02 -6.6,-1.17 -9.22,-3.25c-2.63,-2.08 -4.48,-4.98 -5.26,-8.23c-0.79,-3.26 -0.46,-6.69 0.93,-9.73c1.38,-3.05 3.75,-5.55 6.72,-7.09c2.11,-1.1 4.43,-1.67 6.77,-1.7c1.61,-0.02 2.66,1.53 2.37,3.11c-0.3,1.59 -1.84,2.58 -3.43,2.79c-1.05,0.14 -2.07,0.47 -3.02,0.96c-1.82,0.95 -3.26,2.47 -4.11,4.34c-0.85,1.86 -1.05,3.96 -0.57,5.95c0.48,1.99 1.61,3.77 3.22,5.04c1.6,1.27 3.59,1.97 5.64,1.99c2.05,0.01 4.04,-0.66 5.66,-1.91c1.63,-1.25 2.78,-3.01 3.29,-5c0.27,-1.03 0.35,-2.1 0.25,-3.15c-0.16,-1.6 0.46,-3.33 1.93,-3.98z" fill="#5750F1" id="svg_2"/>
  <path d="m38.52,24.66l-3.52,0l6.98,-19.32l3.46,0l6.97,19.32l-3.56,0l-1.56,-4.47l-7.22,0l-1.55,4.47zm4.75,-13.56l-2.19,6.24l5.23,0l-2.22,-6.24c-0.16,-0.5 -0.34,-1.08 -0.4,-1.48c-0.08,0.37 -0.24,0.95 -0.42,1.48z" fill="#111928" id="svg_7" transform="matrix(1 0 0 1 0 0)"/>
  <path d="m59.12,25c-3.77,0 -6.12,-2.77 -6.12,-6.82c0,-4.07 2.37,-6.97 6.31,-6.97c1.82,0 3.43,0.76 4.25,2.06l0,-8.27l3.2,0l0,19.66l-2.96,0l-0.21,-2.04c-0.79,1.51 -2.48,2.38 -4.47,2.38zm0.72,-2.96c2.24,0 3.7,-1.61 3.7,-3.96c0,-2.35 -1.46,-3.99 -3.7,-3.99c-2.25,0 -3.62,1.66 -3.62,3.99c0,2.32 1.37,3.96 3.62,3.96z" fill="#111928" id="svg_8"/>
  <path d="m72.22,24.66l-3.22,0l0,-13.05l2.96,0l0.26,1.53c0.66,-1.09 1.98,-1.93 3.86,-1.93c1.98,0 3.35,0.98 4.04,2.48c0.66,-1.5 2.19,-2.48 4.17,-2.48c3.17,0 4.92,1.9 4.92,4.91l0,8.54l-3.2,0l0,-7.69c0,-1.88 -1,-2.86 -2.54,-2.86c-1.55,0 -2.74,1.01 -2.74,3.15l0,7.4l-3.23,0l0,-7.72c0,-1.82 -0.97,-2.8 -2.51,-2.8c-1.53,0 -2.77,1.01 -2.77,3.12l0,7.4z" fill="#111928" id="svg_9"/>
  <path d="m92.98,8.99c-1.11,0 -1.98,-0.87 -1.98,-1.96c0,-1.08 0.87,-1.92 1.98,-1.92c1.06,0 1.93,0.84 1.93,1.92c0,1.09 -0.87,1.96 -1.93,1.96zm-1.61,15.67l0,-13.05l3.22,0l0,13.05l-3.22,0z" fill="#111928" id="svg_10"/>
  <path d="m100.22,24.66l-3.22,0l0,-13.05l2.99,0l0.26,1.69c0.82,-1.33 2.4,-2.09 4.18,-2.09c3.27,0 4.96,2.03 4.96,5.41l0,8.04l-3.22,0l0,-7.27c0,-2.19 -1.08,-3.25 -2.75,-3.25c-1.98,0 -3.2,1.38 -3.2,3.49l0,7.03z" fill="#111928" id="svg_11"/>
 </g>
</svg>